<?xml version="1.0" encoding="utf-8"?>
<!-- Generator: Adobe Illustrator 23.0.5, SVG Export Plug-In . SVG Version: 6.00 Build 0)  -->
<svg version="1.1" id="Layer_1" xmlns="http://www.w3.org/2000/svg" xmlns:xlink="http://www.w3.org/1999/xlink" x="0px" y="0px"
	 viewBox="0 0 185 84" style="enable-background:new 0 0 185 84;" xml:space="preserve">
<style type="text/css">
	.st0{fill:#FF214F;}
</style>
<path class="st0" d="M98.08,69c-1.33,0-2.57-0.34-3.71-1.01c-1.15-0.67-2.01-1.72-2.6-3.16L80.41,36.28
	c-0.11-0.36-0.35-0.54-0.72-0.54c-0.22,0-0.42,0.1-0.61,0.3c-0.19,0.2-0.28,0.5-0.28,0.91v31.11h-9.64V34.8
	c0-2.55,0.3-4.66,0.91-6.32c0.61-1.66,1.47-3.02,2.58-4.1c0.85-0.81,1.82-1.47,2.91-1.98c1.09-0.52,2.3-0.77,3.63-0.77
	c2.36,0,4.29,0.78,5.79,2.35c1.5,1.57,2.72,3.61,3.68,6.11l8.48,22.31c0.19,0.58,0.5,0.87,0.94,0.87c0.44,0,0.76-0.29,0.94-0.87
	l8.48-22.31c0.96-2.51,2.18-4.55,3.66-6.11c1.48-1.57,3.42-2.35,5.82-2.35c1.33,0,2.54,0.26,3.63,0.77
	c1.09,0.52,2.06,1.18,2.91,1.98c1.11,1.07,1.97,2.44,2.58,4.1c0.61,1.66,0.91,3.76,0.91,6.32v33.26h-9.64V36.95
	c0-0.4-0.09-0.71-0.28-0.91c-0.18-0.2-0.39-0.3-0.61-0.3c-0.37,0-0.61,0.18-0.72,0.54L104.4,64.83c-0.59,1.44-1.46,2.49-2.6,3.16
	C100.65,68.66,99.41,69,98.08,69z"/>
<path class="st0" d="M146.03,70c-2.53,0-4.68-0.3-6.45-0.91c-1.78-0.6-3.23-1.55-4.35-2.83c-1.12-1.28-1.94-2.9-2.45-4.86
	c-0.51-1.96-0.77-4.31-0.77-7.07V21h10.78v31.89c0,3.04,1.28,4.57,3.85,4.57h16.64c2.65,0,3.97-1.52,3.97-4.57V21H178v33.34
	c0,5.46-1.08,9.43-3.26,11.92c-2.17,2.49-5.76,3.73-10.77,3.73H146.03z"/>
<path class="st0" d="M38.24,22l-6.89,11H20.5c-3.03,0-5.5-2.47-5.5-5.5c0-1.52,0.62-2.89,1.61-3.89c1-0.99,2.37-1.61,3.89-1.61
	H38.24z"/>
<path class="st0" d="M64,27.5c0,1.52-0.62,2.89-1.61,3.89c-1,0.99-2.37,1.61-3.89,1.61H44.33l6.89-11h7.28
	C61.53,22,64,24.47,64,27.5z"/>
<path class="st0" d="M26.97,40l-6.88,10.98C17.25,50.77,15,48.39,15,45.5c0-1.52,0.62-2.89,1.61-3.89c1-0.99,2.37-1.61,3.89-1.61
	H26.97z"/>
<path class="st0" d="M64,45.5c0,1.52-0.62,2.89-1.61,3.89c-1,0.99-2.37,1.61-3.89,1.61H33.06l6.89-11H58.5
	C61.53,40,64,42.47,64,45.5z"/>
<path class="st0" d="M56.16,12.54c0,1-0.27,2.01-0.84,2.91L51.22,22l-6.89,11l-4.38,7l-6.89,11l-5.01,8l-6.89,11l-4.08,6.52
	c-1.61,2.57-5.02,3.35-7.58,1.74c-1.67-1.04-2.58-2.84-2.58-4.67c0-1,0.27-2.01,0.83-2.91l12.34-19.7L26.97,40l4.38-7l6.89-11
	L46,9.61c1.61-2.56,5.02-3.35,7.58-1.74C55.24,8.91,56.16,10.71,56.16,12.54z"/>
<path class="st0" d="M64,64.5c0,1.52-0.62,2.89-1.61,3.89c-1,0.99-2.37,1.61-3.89,1.61H21.16l6.89-11H58.5
	C61.53,59,64,61.47,64,64.5z"/>
</svg>
